<svg width="70" height="70" viewBox="0 0 70 70" fill="none" xmlns="http://www.w3.org/2000/svg">
<rect width="70" height="70" rx="35" fill="black"/>
<path d="M28.6562 42.9082L22.3594 43.7207L21.5977 40.8516H18.7031L18.0684 43.7207L11.5938 43.0859L16.6465 26.1758L23.7051 25.8203L28.6562 42.9082ZM21.1406 36.9668L20.1758 32.5488L19.2363 36.9668H21.1406ZM43.8018 31.7617C43.8018 32.4219 43.7425 33.0228 43.624 33.5645C43.514 34.0977 43.3363 34.5885 43.0908 35.0371C42.8454 35.4857 42.528 35.9004 42.1387 36.2812C41.7493 36.6621 41.2796 37.026 40.7295 37.373L43.751 42.7559L38.0381 43.873L36.083 38.4648L34.5088 38.5156L34.2803 43.7969H28.8213C28.8636 41.8672 28.9017 39.946 28.9355 38.0332C28.9779 36.1204 29.0244 34.1992 29.0752 32.2695C29.0921 31.2962 29.109 30.3314 29.126 29.375C29.1429 28.4186 29.1768 27.4538 29.2275 26.4805C29.82 26.2604 30.404 26.0785 30.9795 25.9346C31.555 25.7907 32.1305 25.6807 32.7061 25.6045C33.29 25.5199 33.8783 25.4648 34.4707 25.4395C35.0716 25.4056 35.6852 25.3887 36.3115 25.3887C37.2764 25.3887 38.2074 25.5241 39.1045 25.7949C40.0101 26.0573 40.8099 26.4551 41.5039 26.9883C42.1979 27.5215 42.7523 28.1859 43.167 28.9814C43.5902 29.777 43.8018 30.7038 43.8018 31.7617ZM38.1143 32.168C38.1143 31.8125 38.0635 31.4867 37.9619 31.1904C37.8688 30.8942 37.7249 30.6403 37.5303 30.4287C37.3441 30.2087 37.1071 30.0394 36.8193 29.9209C36.54 29.7939 36.21 29.7305 35.8291 29.7305C35.6598 29.7305 35.4948 29.7432 35.334 29.7686C35.1732 29.7855 35.0166 29.8151 34.8643 29.8574L34.6611 34.5801H34.9658C35.3298 34.5801 35.6979 34.5335 36.0703 34.4404C36.4512 34.3473 36.7897 34.2035 37.0859 34.0088C37.3906 33.8141 37.6361 33.5645 37.8223 33.2598C38.0169 32.9551 38.1143 32.5911 38.1143 32.168ZM58.1348 26.0996L58.0078 31.4824L54.2246 31.6348L53.7676 43.416L48.4102 43.6953L47.9277 31.9141L44.1445 32.1172L44.2969 26.125L58.1348 26.0996Z" fill="white"/>
</svg>
